<?xml version="1.0" standalone="no"?>
<!DOCTYPE svg PUBLIC "-//W3C//DTD SVG 20010904//EN"
 "http://www.w3.org/TR/2001/REC-SVG-20010904/DTD/svg10.dtd">
<svg version="1.0" xmlns="http://www.w3.org/2000/svg"
 width="6250.000000pt" height="6250.000000pt" viewBox="0 0 6250.000000 6250.000000"
 preserveAspectRatio="xMidYMid meet">

<g transform="translate(0.000000,6250.000000) scale(0.100000,-0.100000)"
fill="#000000" stroke="none">
<path d="M8790 34068 l0 -2473 1197 -1197 c659 -659 1202 -1198 1208 -1198 6
0 543 533 1195 1185 l1185 1185 55 0 55 0 1202 -1202 1203 -1203 1210 1210
1210 1210 0 2477 0 2478 -1235 0 -1235 0 0 -1228 0 -1227 -1168 -1168 -1167
-1167 -70 0 -70 0 -1179 1179 -1179 1179 7 1216 8 1216 -1216 0 -1216 0 0
-2472z"/>
<path d="M48195 36530 c-765 -52 -1422 -270 -2022 -671 -727 -486 -1243 -1220
-1457 -2075 -79 -314 -110 -621 -103 -1014 6 -312 24 -480 76 -729 268 -1261
1185 -2256 2461 -2669 456 -148 910 -210 1455 -199 381 7 634 38 962 117 835
201 1573 666 2078 1310 88 112 258 369 328 497 207 376 341 795 404 1263 26
192 26 794 0 985 -55 409 -158 761 -321 1100 -407 847 -1124 1492 -2039 1834
-326 122 -696 205 -1077 241 -159 15 -588 20 -745 10z m615 -1415 c504 -63
936 -270 1280 -615 456 -456 682 -1094 639 -1808 -34 -576 -240 -1072 -604
-1451 -337 -351 -756 -565 -1260 -643 -197 -30 -520 -30 -721 1 -892 135
-1570 748 -1789 1616 -59 234 -70 329 -70 635 0 296 10 396 61 610 53 224 156
470 277 667 327 526 880 885 1507 977 150 22 156 23 365 24 121 1 236 -4 315
-13z"/>
<path d="M20270 32855 l0 -3565 2755 0 2755 0 0 660 0 660 -1937 2 -1938 3 -3
823 -2 822 1655 0 1655 0 0 645 0 645 -1655 0 -1655 0 0 770 0 770 1875 0
1875 0 0 665 0 665 -2690 0 -2690 0 0 -3565z"/>
<path d="M27100 32856 l0 -3566 1943 0 c1170 0 2010 4 2112 10 940 55 1585
285 2010 715 309 313 465 721 465 1219 0 821 -425 1438 -1185 1721 -55 20
-101 38 -103 40 -2 2 35 26 83 55 435 262 709 643 812 1129 26 118 27 142 27
381 1 229 -2 266 -22 360 -96 441 -325 771 -714 1030 -382 254 -817 386 -1493
451 -85 9 -677 13 -2027 16 l-1908 4 0 -3565z m3568 2304 c532 -57 839 -262
923 -616 18 -76 20 -110 16 -234 -5 -163 -19 -226 -75 -340 -46 -95 -174 -228
-277 -288 -143 -84 -317 -138 -545 -169 -123 -16 -219 -18 -1055 -18 l-920 0
-3 838 -2 837 920 0 c566 0 958 -4 1018 -10z m324 -2885 c168 -19 261 -39 388
-81 311 -104 494 -284 566 -559 29 -109 27 -363 -4 -470 -100 -350 -381 -540
-905 -612 -120 -16 -228 -18 -1217 -18 l-1085 0 -3 878 -2 877 1068 0 c882 0
1089 -3 1194 -15z"/>
<path d="M34510 35745 l0 -675 1909 -2 1909 -3 -1949 -2350 -1949 -2350 0
-537 0 -538 3115 0 3115 0 0 670 0 670 -2026 2 -2026 3 1946 2352 1946 2353 0
540 0 540 -2995 0 -2995 0 0 -675z"/>
<path d="M41720 32855 l0 -3565 820 0 820 0 0 3565 0 3565 -820 0 -820 0 0
-3565z"/>
<path d="M23168 26944 c-179 -43 -328 -186 -374 -358 -8 -28 -14 -87 -14 -131
0 -144 50 -264 149 -359 256 -244 717 -171 861 136 140 298 -23 638 -341 713
-78 18 -205 18 -281 -1z m297 -145 c44 -16 76 -38 121 -83 79 -79 107 -147
107 -261 0 -114 -28 -182 -107 -261 -83 -83 -147 -108 -276 -108 -75 0 -107 5
-152 23 -80 31 -159 106 -200 189 -30 60 -33 75 -33 157 0 76 4 99 27 147 31
67 95 140 153 173 99 59 243 68 360 24z"/>
<path d="M28215 26946 c-69 -17 -151 -63 -186 -106 -87 -104 -71 -275 34 -351
58 -42 89 -54 262 -100 82 -22 163 -48 179 -57 44 -26 71 -68 71 -112 0 -169
-329 -203 -547 -56 l-27 18 -27 -53 -27 -53 33 -28 c37 -30 147 -73 229 -88
179 -33 373 14 452 109 62 75 74 199 28 281 -41 72 -118 114 -284 156 -169 42
-219 61 -256 100 -28 29 -34 43 -34 79 0 56 26 93 89 124 92 46 232 39 354
-19 34 -16 65 -30 69 -30 7 -1 43 88 43 107 0 20 -90 60 -173 77 -89 19 -211
19 -282 2z"/>
<path d="M29678 26944 c-179 -43 -328 -186 -374 -358 -8 -28 -14 -87 -14 -131
0 -144 50 -264 149 -359 256 -244 717 -171 861 136 140 298 -23 638 -341 713
-78 18 -205 18 -281 -1z m297 -145 c44 -16 76 -38 121 -83 79 -79 107 -147
107 -261 0 -114 -28 -182 -107 -261 -83 -83 -147 -108 -276 -108 -75 0 -107 5
-152 23 -80 31 -159 106 -200 189 -30 60 -33 75 -33 157 0 76 4 99 27 147 31
67 95 140 153 173 99 59 243 68 360 24z"/>
<path d="M33128 26944 c-179 -43 -328 -186 -374 -358 -8 -28 -14 -87 -14 -131
0 -144 50 -264 149 -359 256 -244 717 -171 861 136 140 298 -23 638 -341 713
-78 18 -205 18 -281 -1z m297 -145 c44 -16 76 -38 121 -83 79 -79 107 -147
107 -261 0 -114 -28 -182 -107 -261 -83 -83 -147 -108 -276 -108 -75 0 -107 5
-152 23 -80 31 -159 106 -200 189 -30 60 -33 75 -33 157 0 76 4 99 27 147 31
67 95 140 153 173 99 59 243 68 360 24z"/>
<path d="M36878 26945 c-188 -46 -325 -177 -374 -360 -27 -99 -15 -245 28
-345 46 -106 164 -212 288 -257 68 -25 87 -28 200 -27 159 0 226 23 338 112
l44 35 -48 48 -47 48 -40 -34 c-66 -57 -136 -79 -247 -79 -74 0 -108 5 -152
23 -80 31 -159 106 -200 189 -30 60 -33 75 -33 157 0 82 3 97 33 157 41 83
120 158 200 189 44 18 78 23 152 23 84 1 102 -3 157 -28 33 -15 74 -41 89 -57
15 -16 33 -29 39 -29 6 0 30 20 54 44 l42 43 -48 43 c-117 105 -305 146 -475
105z"/>
<path d="M37888 26944 c-179 -43 -328 -186 -374 -358 -8 -28 -14 -87 -14 -131
0 -144 50 -264 149 -359 256 -244 717 -171 861 136 140 298 -23 638 -341 713
-78 18 -205 18 -281 -1z m297 -145 c44 -16 76 -38 121 -83 79 -79 107 -147
107 -261 0 -114 -28 -182 -107 -261 -83 -83 -147 -108 -276 -108 -75 0 -107 5
-152 23 -80 31 -159 106 -200 189 -30 60 -33 75 -33 157 0 76 4 99 27 147 31
67 95 140 153 173 99 59 243 68 360 24z"/>
<path d="M21830 26944 c0 -3 88 -150 195 -325 l195 -319 0 -170 0 -170 70 0
70 0 0 166 0 166 186 307 c103 168 194 316 202 329 l14 22 -73 0 -74 0 -147
-243 c-81 -133 -153 -251 -161 -261 -11 -16 -30 11 -171 243 l-157 261 -75 0
c-41 0 -74 -3 -74 -6z"/>
<path d="M24050 26638 c0 -333 8 -405 50 -488 71 -140 216 -209 410 -197 103
7 139 17 210 59 68 41 124 114 152 198 20 60 22 91 26 403 l4 337 -70 0 -70 0
-4 -327 c-5 -374 -9 -394 -84 -469 -100 -100 -299 -100 -399 1 -73 73 -78 99
-83 473 l-4 322 -69 0 -69 0 0 -312z"/>
<path d="M25190 26456 l0 -496 70 0 70 0 0 150 0 150 158 0 157 -1 105 -149
105 -150 78 0 c60 0 76 3 71 13 -8 14 -166 236 -202 284 l-24 32 49 25 c51 25
111 84 137 133 27 54 38 149 26 225 -20 116 -93 200 -217 249 -54 22 -76 23
-320 27 l-263 4 0 -496z m501 358 c114 -34 164 -104 157 -224 -5 -90 -36 -138
-115 -177 -56 -27 -65 -28 -230 -31 l-173 -4 0 226 0 226 153 0 c111 0 168 -4
208 -16z"/>
<path d="M26462 26941 c2 -6 100 -228 218 -496 l215 -485 74 2 74 3 183 415
c101 228 199 450 218 493 l35 77 -73 0 -73 0 -180 -406 -181 -406 -24 53 c-13
30 -93 213 -178 406 l-155 353 -78 0 c-45 0 -77 -4 -75 -9z"/>
<path d="M27600 26455 l0 -495 70 0 70 0 0 495 0 495 -70 0 -70 0 0 -495z"/>
<path d="M28930 26455 l0 -495 70 0 70 0 0 495 0 495 -70 0 -70 0 0 -495z"/>
<path d="M30570 26455 l0 -495 70 0 70 0 2 362 3 362 295 -359 296 -360 62 -3
62 -3 0 496 0 495 -70 0 -70 0 0 -366 c0 -243 -3 -363 -10 -359 -6 3 -141 168
-301 366 l-290 359 -60 0 -59 0 0 -495z"/>
<path d="M34010 26638 c0 -333 8 -405 50 -488 71 -140 216 -209 410 -197 103
7 139 17 210 59 68 41 124 114 152 198 20 60 22 91 26 403 l4 337 -70 0 -70 0
-4 -327 c-5 -374 -9 -394 -84 -469 -100 -100 -299 -100 -399 1 -73 73 -78 99
-83 473 l-4 322 -69 0 -69 0 0 -312z"/>
<path d="M35150 26456 l0 -496 70 0 70 0 0 150 0 150 158 0 157 -1 105 -149
105 -150 78 0 c60 0 76 3 71 13 -8 14 -166 236 -202 284 l-24 32 49 25 c51 25
111 84 137 133 27 54 38 149 26 225 -20 116 -93 200 -217 249 -54 22 -76 23
-320 27 l-263 4 0 -496z m501 358 c114 -34 164 -104 157 -224 -5 -90 -36 -138
-115 -177 -56 -27 -65 -28 -230 -31 l-173 -4 0 226 0 226 153 0 c111 0 168 -4
208 -16z"/>
<path d="M38780 26455 l0 -495 248 0 c276 0 346 10 449 60 165 81 263 244 263
435 0 191 -98 354 -263 435 -103 50 -173 60 -449 60 l-248 0 0 -495z m533 360
c78 -20 130 -48 177 -95 140 -140 142 -384 5 -525 -89 -91 -174 -115 -407
-115 l-168 0 0 375 0 375 168 0 c117 0 185 -5 225 -15z"/>
<path d="M39960 26455 l0 -495 360 0 360 0 0 60 0 60 -290 0 -290 0 0 165 0
165 250 0 250 0 0 60 0 60 -250 0 -250 0 0 150 0 150 280 0 280 0 0 60 0 60
-350 0 -350 0 0 -495z"/>
<path d="M32059 26121 c-41 -41 -41 -102 -1 -139 l29 -26 -23 -91 c-13 -49
-24 -96 -24 -102 0 -9 15 -13 44 -13 l45 0 45 139 c51 154 53 169 31 211 -30
59 -98 68 -146 21z"/>
</g>
</svg>
